{"title":"Men.in.Black.3.2012.TS.XviD.Feel-Free [ JohnPc666 ]","uid":7316758,"size":1139818496,"categoryP":"video","categoryS":"movies","magnet":"?xt=urn:btih:b1f23ba8b5d2d7a8c1ca21080be1c01588022f95&amp;dn=Men.in.Black.3.2012.TS.XviD.Feel-Free+%5B+JohnPc666+%5D&amp;tr=udp%3A%2F%2Ftracker.openbittorrent.com%3A80&amp;tr=udp%3A%2F%2Fopen.demonii.com%3A1337&amp;tr=udp%3A%2F%2Ftracker.coppersurfer.tk%3A6969&amp;tr=udp%3A%2F%2Fexodus.desync.com%3A6969","seeders":1,"leechers":0,"uploader":"johnpc666","files":-1,"time":1338502178,"description":"Genre: Action | Comedy | Sci-Fi\nLanguage:English\nIMDb:http://www.imdb.com/title/tt1409024/\nSource:Unknown Thanks!\nEncoder:Tony\nFormat: AVI\nFormat/Info: Audio Video Interleave\nFile size: 1.06 GiB\nDuration: 1h 37mn\nOverall bit rate: 1 566 Kbps\n\nVideo\nID: 0\nFormat: MPEG-4 Visual\nFormat profile: Advanced Simple@L5\nFormat settings, BVOP: 1\nFormat settings, QPel: No\nFormat settings, GMC: No warppoints\nFormat settings, Matrix: Default (H.263)\nCodec ID: XVID\nCodec ID/Hint: XviD\nDuration: 1h 37mn\nBit rate: 1 365 Kbps\nWidth: 640 pixels\nHeight: 304 pixels\nDisplay aspect ratio: 2.105\nFrame rate: 25.000 fps\nColor space: YUV\nChroma subsampling: 4:2:0\nBit depth: 8 bits\nScan type: Progressive\nCompression mode: Lossy\nBits/(Pixel*Frame): 0.281\nStream size: 947 MiB (87%)\nWriting library: XviD 1.2.1 (UTC 2008-12-04)\n\nAudio\nID: 1\nFormat: AC-3\nFormat/Info: Audio Coding 3\nMode extension: CM (complete main)\nFormat settings, Endianness: Big\nCodec ID: 2000\nDuration: 1h 37mn\nBit rate mode: Constant\nBit rate: 192 Kbps\nChannel(s): 2 channels\nChannel positions: Front: L R\nSampling rate: 48.0 KHz\nBit depth: 16 bits\nCompression mode: Lossy\nStream size: 133 MiB (12%)\nAlignment: Aligned on interleaves\nInterleave, duration: 40 ms (1.00 video frame)\nInterleave, preload duration: 512 ms\n\nPlot:\nAgent J travels in time to MIB's early years in the 1960s, to stop an alien from assassinating his friend Agent K and changing history\n\n\n----------------------------------------------------------------------------------\n\nPlease seed and enjoy :)\n\n   -=[ JohnPc666 ]=-\n\n&lt;a class=&quot;__cf_email__&quot; href=&quot;/cdn-cgi/l/email-protection&quot; data-cfemail=&quot;0f656067617f6c3939394f677a7c67626e6663216c6062&quot;&gt;[email&amp;#160;protected]&lt;/a&gt;&lt;script cf-hash='f9e31' type=&quot;text/javascript&quot;&gt;\n/* &lt;![CDATA[ */!function(){try{var t=&quot;currentScript&quot;in document?document.currentScript:function(){for(var t=document.getElementsByTagName(&quot;script&quot;),e=t.length;e--;)if(t[e].getAttribute(&quot;cf-hash&quot;))return t[e]}();if(t&amp;&amp;t.previousSibling){var e,r,n,i,c=t.previousSibling,a=c.getAttribute(&quot;data-cfemail&quot;);if(a){for(e=&quot;&quot;,r=parseInt(a.substr(0,2),16),n=2;a.length-n;n+=2)i=parseInt(a.substr(n,2),16)^r,e+=String.fromCharCode(i);e=document.createTextNode(e),c.parentNode.replaceChild(e,c)}}}catch(u){}}();/* ]]&gt; */&lt;/script&gt;","torrent":{"xt":"urn:btih:b1f23ba8b5d2d7a8c1ca21080be1c01588022f95","amp;dn":"Men.in.Black.3.2012.TS.XviD.Feel-Free+%5B+JohnPc666+%5D","amp;tr":["udp%3A%2F%2Ftracker.openbittorrent.com%3A80","udp%3A%2F%2Fopen.demonii.com%3A1337","udp%3A%2F%2Ftracker.coppersurfer.tk%3A6969","udp%3A%2F%2Fexodus.desync.com%3A6969"],"infoHash":"b1f23ba8b5d2d7a8c1ca21080be1c01588022f95","infoHashBuffer":{"type":"Buffer","data":[177,242,59,168,181,210,215,168,193,202,33,8,11,225,192,21,136,2,47,149]},"announce":[],"urlList":[]}}